inDegrees=yes
name=ik_Shooting_orientation_zug
DataType=double
version=3
OpenSimVersion=4.3-2021-08-27-4bc7ad9
endheader
time	pelvis_tilt	pelvis_list	pelvis_rotation	pelvis_tx	pelvis_ty	pelvis_tz	hip_flexion_r	hip_adduction_r	hip_rotation_r	knee_angle_r	knee_angle_r_beta	ankle_angle_r	subtalar_angle_r	mtp_angle_r	hip_flexion_l	hip_adduction_l	hip_rotation_l	knee_angle_l	knee_angle_l_beta	ankle_angle_l	subtalar_angle_l	mtp_angle_l	lumbar_extension	lumbar_bending	lumbar_rotation	arm_flex_r	arm_add_r	arm_rot_r	elbow_flex_r	pro_sup_r	wrist_flex_r	wrist_dev_r	arm_flex_l	arm_add_l	arm_rot_l	elbow_flex_l	pro_sup_l	wrist_flex_l	wrist_dev_l
7.29	-0.6401371024708956	-1.758398262045823	148.1116933066447	0	0.9399999999999999	0	43.68893901550189	-10.00394744697731	0	58.69302951253983	1.024386612964022	-5.000610466502854	0	0	43.68893901550189	-10.00394744697731	0	58.69302951253983	1.024386612964022	-5.000610466502854	0	0	2.290936538978684	-2.261437934916099	-3.371086287627058	88.15229642762768	-51.1399125530842	89.90173617544775	1.441707793548168	45.05119059473559	0	0	0	-12.32762267650981	0	74.12390753702725	45.05119059473559	0	0
7.3	-0.6567448137325503	-1.751681047566201	148.0928016853463	0	0.9399999999999999	0	43.74037697947267	-10.00344446066906	0	58.73352363715175	1.025093368766213	-5.000513106771511	0	0	43.74037697947267	-10.00344446066906	0	58.73352363715175	1.025093368766213	-5.000513106771511	0	0	2.255172403980225	-2.249191083600969	-3.316155680670274	88.08737208618845	-51.20967659111786	89.90055511208665	1.454790301592673	45.04588686492323	0	0	0	-12.38082301140203	0	74.15828165602969	45.04588686492323	0	0
7.31	-0.6415269806970206	-1.758825200900015	148.1029287777543	0	0.9399999999999999	0	43.75036769544253	-10.00337444548027	0	58.74316482724495	1.02526163927715	-5.000500409513404	0	0	43.75036769544253	-10.00337444548027	0	58.74316482724495	1.02526163927715	-5.000500409513404	0	0	2.293708524456069	-1.700750765670157	-3.3149845998614	87.6572894705432	-57.44819432690819	89.83935135331373	7.191267706373449	45.04510307756134	0	0	0	-12.39314577466883	0	74.16495857610137	45.04510307756134	0	0
7.32	-0.6613075675245059	-1.762829459316778	148.1075630912869	0	0.9399999999999999	0	43.78418897890243	-10.00310159744643	0	58.77260436989179	1.025775456226619	-5.000449574552301	0	0	43.78418897890243	-10.00310159744643	0	58.77260436989179	1.025775456226619	-5.000449574552301	0	0	2.254288940576726	-1.548242648234053	-3.265429546005865	85.17917518370393	-81.21265036900726	89.29941927387711	30.02934174144355	45.04212564899468	0	0	0	-12.43204899027673	0	74.18756102331621	45.04212564899468	0	0
7.33	-0.6658833887656013	-1.76250048154962	148.110987239579	0	0.9399999999999999	0	43.82781250259485	-10.0027917931501	0	58.81265334580809	1.02647444271841	-5.00039394867945	0	0	43.82781250259485	-10.0027917931501	0	58.81265334580809	1.02647444271841	-5.00039394867945	0	0	2.297671330160608	-0.2492660200740855	-3.378489405879319	56.5719819821755	-101.6271375302142	63.9528688160501	50.00865411495273	45.0386453401084	0	0	0	-12.48467407377874	0	74.21671495695034	45.0386453401084	0	0
7.34	-0.6804706500077176	-1.772018922215407	148.1180627766728	0	0.9399999999999999	0	43.82624426757308	-10.00278969153083	0	58.81025612308384	1.026432603288969	-5.00039303853565	0	0	43.82624426757308	-10.00278969153083	0	58.81025612308384	1.026432603288969	-5.00039303853565	0	0	2.284610992723418	-0.2758721446763978	-3.372973385743635	59.97855295357286	-105.7112029486585	66.90906356771474	53.41611235221748	45.03865113022391	0	0	0	-12.48178260350565	0	74.21566664817843	45.03865113022391	0	0
7.35	-0.686879091976395	-1.778155489211119	148.1068600198773	0	0.9399999999999999	0	43.83010932308787	-10.00275760603091	0	58.81332177554506	1.026486109018139	-5.000387146201144	0	0	43.83010932308787	-10.00275760603091	0	58.81332177554506	1.026486109018139	-5.000387146201144	0	0	2.297115381883166	-0.2953730983713689	-3.37800026218232	57.78798722679986	-104.4331413915113	64.45052023704399	51.17165189375374	45.03829928920861	0	0	0	-12.48602166910231	0	74.21824959571958	45.03829928920861	0	0
7.36	-0.6880365788872738	-1.766070348486954	148.0867259212175	0	0.9399999999999999	0	43.83336391859885	-10.00273075268876	0	58.81590288946042	1.026531157954331	-5.000382228651851	0	0	43.83336391859885	-10.00273075268876	0	58.81590288946042	1.026531157954331	-5.000382228651851	0	0	2.292284945101	-0.2723376191425103	-3.349820329276809	56.57232672517963	-105.8276942779037	63.39398528284944	51.78056984338559	45.03800426327479	0	0	0	-12.48959424201225	0	74.22042458578723	45.03800426327479	0	0
7.37	-0.6977852534313337	-1.773483342443627	148.109932619003	0	0.9399999999999999	0	43.83665513376066	-10.00270380359965	0	58.81851508380653	1.026576749346372	-5.000377309450701	0	0	43.83665513376066	-10.00270380359965	0	58.81851508380653	1.026576749346372	-5.000377309450701	0	0	2.289159290305802	-0.2909287508254628	-3.377720475704503	54.44677781222893	-105.4241730370264	60.51777775198094	50.57528695137598	45.03770752790733	0	0	0	-12.49321261013419	0	74.2226240508719	45.03770752790733	0	0
7.38	-0.7133919183569717	-1.772772542218245	148.1239923156701	0	0.9399999999999999	0	43.83978759330675	-10.00267833486246	0	58.82100304078334	1.026620172387266	-5.00037267432238	0	0	43.83978759330675	-10.00267833486246	0	58.82100304078334	1.026620172387266	-5.00037267432238	0	0	2.271786278475124	-0.3265313005320381	-3.389955817293752	50.78675330054146	-104.5367558970371	56.54339768887948	49.25159032617456	45.03742651598919	0	0	0	-12.49666134133277	0	74.22471742456997	45.03742651598919	0	0
7.39	-0.7234174798180232	-1.769977852933772	148.1260909668502	0	0.9399999999999999	0	43.84423806795926	-10.00264244265287	0	58.82454014528069	1.026681906506731	-5.00036616492909	0	0	43.84423806795926	-10.00264244265287	0	58.82454014528069	1.026681906506731	-5.00036616492909	0	0	2.254311040137079	-0.3118360273024371	-3.398838341182863	45.1659960352893	-102.9791713292737	50.5806916120953	47.15454374465809	45.03702954826636	0	0	0	-12.50156879831175	0	74.22769161098799	45.03702954826636	0	0
7.4	-0.7318154841378861	-1.778778575009998	148.1060238054542	0	0.9399999999999999	0	43.89361754849192	-10.00235825159287	0	58.87312217919724	1.027529822955891	-5.000318455202416	0	0	43.89361754849192	-10.00235825159287	0	58.87312217919724	1.027529822955891	-5.000318455202416	0	0	2.244151495556694	-0.3134303146125003	-3.376218193995171	17.69689299109665	-99.1824718453903	22.13474017258408	40.7061161500075	45.0336695807308	0	0	0	-12.56530392517641	0	74.26069340513764	45.0336695807308	0	0
